<svg width="19" height="23" viewBox="0 0 19 23" fill="none" xmlns="http://www.w3.org/2000/svg">
<path fill-rule="evenodd" clip-rule="evenodd" d="M12.7008 1C16.0928 1 18.0388 2.679 18.0388 5.604V20.14C18.0388 20.75 17.7248 21.299 17.1968 21.606C16.6708 21.914 16.0368 21.92 15.5048 21.62L9.54476 18.253L3.52976 21.627C3.26976 21.773 2.98476 21.847 2.69876 21.847C2.40376 21.847 2.10876 21.768 1.84076 21.61C1.31376 21.303 0.999756 20.754 0.999756 20.145V5.421C0.999756 2.611 2.94676 1 6.34176 1H12.7008ZM12.7008 2.5H6.34176C3.79276 2.5 2.49976 3.482 2.49976 5.421V20.145C2.49976 20.239 2.55376 20.29 2.59876 20.316C2.64376 20.344 2.71476 20.364 2.79676 20.318L9.17876 16.738C9.40676 16.611 9.68576 16.61 9.91476 16.739L16.2418 20.313C16.3248 20.361 16.3958 20.339 16.4408 20.312C16.4858 20.285 16.5388 20.234 16.5388 20.14L16.5384 5.49004C16.5308 4.62937 16.3643 2.5 12.7008 2.5ZM13.1396 7.7285C13.5536 7.7285 13.8896 8.0645 13.8896 8.4785C13.8896 8.8925 13.5536 9.2285 13.1396 9.2285H5.82156C5.40756 9.2285 5.07156 8.8925 5.07156 8.4785C5.07156 8.0645 5.40756 7.7285 5.82156 7.7285H13.1396Z" fill="white" stroke="white" stroke-width="0.5"/>
</svg>
